<svg xmlns="http://www.w3.org/2000/svg" viewBox="0 0 64 64" width="64" height="64">
  <defs>
    <linearGradient id="g" x1="0" y1="0" x2="64" y2="64">
      <stop offset="0%" stop-color="#0F5132"/>
      <stop offset="100%" stop-color="#C9A24F"/>
    </linearGradient>
  </defs>
  <path d="M32 4 L40 16 L54 12 L52 26 L60 32 L52 38 L54 52 L40 48 L32 60 L24 48 L10 52 L12 38 L4 32 L12 26 L10 12 L24 16 Z"
        fill="url(#g)" stroke="#0F5132" stroke-width="1.5" stroke-linejoin="round"/>
  <path d="M22 26 V36 a6 6 0 0 0 6 6 H30 M30 42 a6 6 0 0 0 6 -6 V26 M30 28 L36 28"
        stroke="#FAF6EE" stroke-width="2" stroke-linecap="round" fill="none"/>
  <circle cx="32" cy="32" r="1.8" fill="#FAF6EE"/>
</svg>
